<svg xmlns="http://www.w3.org/2000/svg" viewBox="0 0 178.52 230.78"><defs><style>.cls-1{fill:#231f20;}.cls-2{fill:none;stroke:#231f20;stroke-miterlimit:10;stroke-width:23px;}.cls-3{fill:#e6e7e8;}</style></defs><title>Layer 1 (3)</title><g id="Layer_2" data-name="Layer 2"><g id="Layer_1-2" data-name="Layer 1"><rect class="cls-1" y="76.85" width="178.52" height="153.93" rx="20.82"/><path class="cls-2" d="M34.92,76.85c0-65.35,53.64-65.35,53.64-65.35s54.49,0,54.49,65.35"/><path class="cls-3" d="M112.08,128.12c.06.49-.27.68-.65.83s-.6.17-.9.26c-.9.23-1.79.5-2.71.68-1.36.32-2.75.52-4.13.76-.85.13-1.71.21-2.56.35-2.12.11-4.23.45-6.36.35a2.45,2.45,0,0,0-.54.1,17.57,17.57,0,0,1-2.51.06c-2-.18-4-.07-6-.31-.47,0-.94,0-1.41,0a2.59,2.59,0,0,1-.56-.05,3.52,3.52,0,0,0-1.29-.11,3.21,3.21,0,0,1-.76-.06,7.32,7.32,0,0,0-1.47-.14l-.25,0a5.88,5.88,0,0,0-1.11-.1c-.91-.14-1.83-.23-2.74-.34-1.1-.14-2.19-.33-3.29-.47-.91-.18-1.83-.3-2.74-.48-.63-.15-1.28-.2-1.91-.37-1-.27-1.15-.39-1.11-1.5.15-.73.26-1.48.35-2.22.22-1.12.36-2.25.58-3.36a2.56,2.56,0,0,1,.05-.27c.18-.89.29-1.8.47-2.69.24-1.32.51-2.62.77-3.94.08-.33.13-.66.2-1,.32-1.46.58-2.93.93-4.38.29-1.28.61-2.54.92-3.81.29-1,.53-2,.82-3,.26-.63.36-1.31.6-1.94.15-.37.25-.75.39-1.11.31-.77.6-1.56.93-2.32a2.1,2.1,0,0,1,.63-1l1.23-1.78c1-1,2.1-.53,3.17-.15a14.62,14.62,0,0,1,2,1.46c.82.18,1,1,1.53,1.5a19.73,19.73,0,0,1,1.75,2,4.79,4.79,0,0,0,.66.53,6.41,6.41,0,0,0,2.6,1.52,2,2,0,0,0,.77.08h.23a4.76,4.76,0,0,0,3.11-.8,8.85,8.85,0,0,0,1.64-1.13c.59-.35,1-1,1.57-1.31s.93-.92,1.4-1.37a1.36,1.36,0,0,1,.73-.43l1.25-1.08a9.49,9.49,0,0,1,2.55-1.41,2.81,2.81,0,0,1,2.84,1.7,32.53,32.53,0,0,1,1.72,4c.64.76.61,1.78,1,2.64.67,2.41,1.32,4.82,1.86,7.25.15.74.37,1.47.53,2.21.23,1.17.53,2.32.76,3.49.38,2,.84,4,1.22,6a1.14,1.14,0,0,1,.06.25c0,.09,0,.17,0,.26.23,1.22.46,2.45.7,3.66C111.72,126.44,111.93,127.27,112.08,128.12Z"/><path class="cls-3" d="M153.74,176.43c-.9.34-1.81.22-2.64.5a6.78,6.78,0,0,1-2.17.54c-1.23.11-2.42.43-3.64.58q-2.91.52-5.81,1.13c-1.18.19-2.35.46-3.5.76-1,.16-2,.46-2.95.69-1.13.23-2.22.6-3.33.88-.39.09-.76.23-1.15.35a4.94,4.94,0,0,0-.55.15c-.61.17-1.21.4-1.81.6-.9.27-1.76.64-2.63,1l-.1,0a17.59,17.59,0,0,0-3.06,1.47c-.44.29,0,.35.13.44.87.49,1.82.82,2.71,1.27,2.19,1.08,4.42,2.07,6.61,3.14.87.49,1.83.77,2.68,1.29.25.15.72.31.22.71-1,.23-2.06.4-3.07.66a26.11,26.11,0,0,0-3.13.8c-2.15.6-4.25,1.34-6.33,2.15-1,.38-2.07.87-3.1,1.31-.62.28-1.21.61-1.83.9a14.72,14.72,0,0,0-1.37.7,33.55,33.55,0,0,0-3,1.65c-.38.21-.73.43-1.1.65-.18.11-.36.22-.53.34-.61.42-1.24.83-1.85,1.26s-1.41,1-2.07,1.53c-.4.24-.71.59-1.1.84a32.34,32.34,0,0,0-2.65,2.32c-.2.2-.45.35-.67.53a24.36,24.36,0,0,0-2.48,2.6c-.17.19-.36.36-.53.55-.78.77-1.4,1.68-2.14,2.49-.33.42-.65.85-1,1.28-.57.61-.84,1.44-1.54,1.94A46.75,46.75,0,0,0,89.93,222a14.44,14.44,0,0,1-.4-2.46c-.5-.82-.22-1.71-.21-2.57.17-1.32.17-2.66.44-4,.17-.85.32-1.7.53-2.54.31-1.11.54-2.24.95-3.32.13-.33.23-.67.34-1,.28-.81.6-1.6.91-2.39s.82-1.91,1.3-2.83c.4-.68.68-1.42,1.1-2.09a11.74,11.74,0,0,0,.68-1.26c.67-1,1.28-2.13,2-3.14q.2-.27.36-.54c.61-.9,1.25-1.78,1.89-2.66.42-.53.85-1.06,1.27-1.6s.84-1.06,1.28-1.58c.62-.73,1.29-1.41,1.89-2.16.29-.37.65-.68,1-1l1.28-1.28,2.93-2.93a13.09,13.09,0,0,1,1.12-1,5.37,5.37,0,0,0,.81-.84c.84-.61,1.61-1.33,2.41-2a13.57,13.57,0,0,0,1.53-1.31,16.47,16.47,0,0,0,1.63-1.26,3,3,0,0,0,1.65-2.35c.26-.82.45-1.65.64-2.49a25.12,25.12,0,0,0,.59-3.45,14.43,14.43,0,0,0,.07-3.08c.08-.33.35-.41.61-.51l2.65-.38c1.11-.11,2.21-.3,3.31-.44l1.54-.2.95-.13a11.67,11.67,0,0,0,1.87-.24,2.17,2.17,0,0,1,2,.5c.58.43,1.16.86,1.78,1.24a13.6,13.6,0,0,0,1.6,1.13c.9.72,1.91,1.29,2.83,2l.36.23c.93.69,1.89,1.32,2.83,2,.53.38,1.09.7,1.6,1.11s1.09.71,1.6,1.12c2.16,1.44,4.23,3,6.39,4.41.27.24.66.36.79.75Z"/><path class="cls-3" d="M145.43,151.76a15.53,15.53,0,0,1-2.77,1.59l-.41.21c-1,.43-2,.72-3,1.13-1.15.42-2.34.74-3.51,1.09-1.93.51-3.85,1-5.81,1.44-.65.15-1.31.28-2,.41l-1.69.35c-.94.18-1.89.34-2.83.53-1.22.18-2.44.4-3.66.58-1.87.28-3.75.52-5.62.78a1.84,1.84,0,0,1-.41.06c-1.3.12-2.61.26-3.91.43-.68.1-1.38,0-2,.2q-1.74.1-3.48.3c-.95.06-1.91,0-2.86.2-2.08.11-4.17.11-6.25.24a2.12,2.12,0,0,1-.44.06c-2,.08-4,0-6,0h-.3a20.28,20.28,0,0,1-2.81-.05,2.86,2.86,0,0,0-1.09-.11c-1.84.07-3.67-.15-5.5-.17-.85-.19-1.71-.08-2.56-.2-1.26-.14-2.53-.21-3.79-.29-1-.15-2.12-.25-3.18-.32-2.1-.26-4.19-.55-6.29-.79-1.06-.18-2.12-.32-3.19-.46q-.68-.14-1.35-.24L57,158.46c-1.06-.29-2.16-.35-3.23-.57s-2.05-.48-3.09-.7c-.68-.21-1.38-.3-2.07-.48-1.36-.37-2.75-.67-4.09-1.09-1.13-.33-2.24-.71-3.35-1.08a31.94,31.94,0,0,1-4.4-1.94A3.73,3.73,0,0,1,35,151.17a4.43,4.43,0,0,1-.65-1.14,3.14,3.14,0,0,1,.44-1.22A3.73,3.73,0,0,1,37,147.08l.94-.5a2.14,2.14,0,0,1,1.1-.69c.78-.35,1.58-.65,2.37-1s1.76-.64,2.65-.94l.56-.19c.83-.26,1.65-.57,2.49-.82,1.22-.35,2.44-.7,3.65-1.07,1.58-.38,3.13-.86,4.7-1.26.48-.1,1-.23,1.44-.36s1.21-.27,1.82-.42l1.35-.34c1-.25,2-.42,3-.68a24.2,24.2,0,0,1,3.26-.58c1.05.34,2,.84,3.12,1.11a34.35,34.35,0,0,0,3.59.92l1.68.34a3.69,3.69,0,0,0,.82.13l.24,0a6,6,0,0,0,.85.13c.81.15,1.63.23,2.46.31,1.4.14,2.8.4,4.22.41a3.53,3.53,0,0,1,.86.07,19.59,19.59,0,0,0,3.06.21c3,.14,6,0,9.06-.13a1.8,1.8,0,0,0,.39-.08,3.53,3.53,0,0,1,.86-.07c1.42,0,2.83-.26,4.24-.4a37.55,37.55,0,0,0,4.08-.62c.33-.07.68-.08,1-.17a32.49,32.49,0,0,0,3.9-.92,17.43,17.43,0,0,0,2.9-1,3.52,3.52,0,0,1,2.63,0c.33.07.66.16,1,.22,1,.21,1.89.44,2.85.61s2.21.5,3.31.78c.68.19,1.35.35,2,.51a12,12,0,0,0,1.18.3l1.32.35,1.17.3c1.28.34,2.54.7,3.81,1.06.87.31,1.78.52,2.65.83.49.14,1,.33,1.46.46s1.24.47,1.88.66c1.13.43,2.24.89,3.35,1.37.63.34,1.29.61,1.89,1,.21.16.46.26.68.4.7.58,1.54,1,1.82,2A2.37,2.37,0,0,1,145.43,151.76Z"/><path class="cls-3" d="M90.86,200.58c-.23.88-.46,1.76-.72,2.63-.07.27-.09.57-.37.74a18.34,18.34,0,0,0-.76,2.82,11.82,11.82,0,0,0-.62,2.26c0,.67-.36.67-.82.5-.66-.25-1.22-.71-1.88-1-2.27-1.15-4.49-2.4-6.79-3.48-.63-.35-1.28-.66-1.93-1q-2-1.05-4.11-2.05c-2.26-1-4.48-2.17-6.76-3.16a13.62,13.62,0,0,0-2.81-1.12,17.41,17.41,0,0,0-2.92-1.4c-1.2-.5-2.42-1-3.64-1.39-.64-.34-1.41-.24-2-.6a2.35,2.35,0,0,0-.93-.36,3.21,3.21,0,0,1-.53-.15c-.48-.17-.57-.45-.19-.81s.51-.46.75-.7a8.32,8.32,0,0,0,1.34-1.11c.63-.42,1.12-1,1.73-1.44.61-.61,1.31-1.11,1.93-1.72A12.47,12.47,0,0,0,60.08,187c.86-.66,1.63-1.44,2.49-2.1.35-.31.66-.66,1.1-1l-.67-.24c-1-.34-1.89-.63-2.83-.87l-1.41-.41c-1.67-.49-3.33-1-5-1.41-1-.31-2.06-.6-3.12-.83s-2.11-.54-3.18-.79c-1.88-.47-3.77-.9-5.67-1.26-1.25-.23-2.5-.49-3.76-.63-.46-.16-1,.05-1.4-.34A24.74,24.74,0,0,0,33,176.9c.33-.61,1-.84,1.35-1.36l.32-.26a12.92,12.92,0,0,1,3.16-2.74l.16-.12a24.66,24.66,0,0,1,3.24-3c1-.9,2.06-1.79,3.09-2.68.26-.25.58-.43.84-.68.76-.69,1.56-1.35,2.35-2,.4-.41.92-.7,1.29-1.14.74-.48,1.26-1.22,2-1.67s1.34,0,2,.06c1.35.2,2.7.42,4.06.6.61.11,1.22.19,1.83.28l.38.06a9.81,9.81,0,0,1,2.52.51A33.24,33.24,0,0,1,63.14,166l1.5,3.09c1.1,2.17,2.32,4.27,3.61,6.33a24,24,0,0,0,1.29,2c.25.4.52.78.79,1.17.78,1.24,1.68,2.39,2.54,3.57.34.47.7.93,1.07,1.39s.76.94,1.13,1.43.64.76,1,1.14c.59.63,1.11,1.31,1.71,1.92a11.68,11.68,0,0,0,1.43,1.55c.53.48.88,1.12,1.43,1.58a21,21,0,0,0,1.73,1.67,9.36,9.36,0,0,1,1.09,1c.17.18.34.35.52.52.49.5,1.09.87,1.57,1.39.66.5,1.23,1.11,1.91,1.59,1,.77,1.93,1.55,2.92,2.29C90.62,199.91,91,200.12,90.86,200.58Z"/><path class="cls-3" d="M113.05,163.06c.32.06.59-.25.92-.14a21.79,21.79,0,0,1,0,3.13,1.91,1.91,0,0,0-.19.88,5.84,5.84,0,0,1-.79,2.29,9.17,9.17,0,0,1-2.59,2.64c-.3.14-.58.34-.88.5a18,18,0,0,1-2.11.82,17.83,17.83,0,0,1-3.32.62,11.15,11.15,0,0,1-2.45,0,11.75,11.75,0,0,1-3.74-1.27,9.12,9.12,0,0,1-3.15-2.9l-.25-.37a4.49,4.49,0,0,0-3-2.28,5.54,5.54,0,0,0-2.8.16,4.23,4.23,0,0,0-2.41,2.12,8.69,8.69,0,0,1-.84,1.15A8.23,8.23,0,0,1,83,172.5l-.74.38a10.11,10.11,0,0,1-5.22,1,2.63,2.63,0,0,1-.39-.06,19.22,19.22,0,0,1-3.84-.77c-.4-.18-.8-.33-1.2-.5a9.36,9.36,0,0,1-2.15-1.43,6.74,6.74,0,0,1-1.6-1.85A11.51,11.51,0,0,1,67,167l-.06-.23a4.7,4.7,0,0,0-.17-.83,2.45,2.45,0,0,1,0-.27,17.4,17.4,0,0,1,.06-2.6.61.61,0,0,1,.19-.2c.79,0,1.48.5,2.27.47.25.17.61-.1.82.2s.61.09.91.12c.61,0,1.2.18,1.8.21a8.73,8.73,0,0,1,1.7.08,3.09,3.09,0,0,0,1.17.1,2.73,2.73,0,0,1,.41,0,51.2,51.2,0,0,0,5.53.28,5.93,5.93,0,0,1,.73,0c1,0,2.07,0,3.11,0s2.1,0,3.15,0,2.1,0,3.16,0,2.09,0,3.14,0a36.31,36.31,0,0,0,6.08.07l.28,0a27.82,27.82,0,0,0,3-.15,1.23,1.23,0,0,1,.27,0,6.43,6.43,0,0,0,1.58-.1c.47-.09,1-.07,1.42-.19a33,33,0,0,0,3.58-.59A7.24,7.24,0,0,1,113.05,163.06Z"/></g></g></svg>